<?xml version="1.0" encoding="UTF-8"?>
<svg xmlns="http://www.w3.org/2000/svg" xmlns:xlink="http://www.w3.org/1999/xlink" width="24pt" height="24pt" viewBox="0 0 24 24" version="1.1">
<g id="surface5619">
<path style=" stroke:none;fill-rule:nonzero;fill:rgb(0%,0%,0%);fill-opacity:1;" d="M 21 19.5 L 21 16.5 L 19.5 16.5 L 19.5 19.5 L 4.5 19.5 L 4.5 16.5 L 3 16.5 L 3 19.5 L 1.5 19.5 L 1.5 21 L 22.5 21 L 22.5 19.5 Z M 6 15 L 18 15 L 18 16.5 L 19.5 16.5 L 19.5 13.5 L 18 13.5 L 18 10.5 L 16.5 10.5 L 16.5 13.5 L 7.5 13.5 L 7.5 10.5 L 6 10.5 L 6 13.5 L 4.5 13.5 L 4.5 16.5 L 6 16.5 Z M 16.5 10.5 L 16.5 7.5 L 15 7.5 L 15 9 L 9 9 L 9 7.5 L 7.5 7.5 L 7.5 10.5 Z M 13.5 4.5 L 15 4.5 L 15 7.5 L 13.5 7.5 Z M 9 4.5 L 10.5 4.5 L 10.5 7.5 L 9 7.5 Z M 10.5 3 L 13.5 3 L 13.5 4.5 L 10.5 4.5 Z M 10.5 3 "/>
</g>
</svg>
